<?xml version="1.0" encoding="utf-8"?>
<!-- Generator: Adobe Illustrator 27.2.0, SVG Export Plug-In . SVG Version: 6.00 Build 0)  -->
<svg version="1.1" id="Layer_1" xmlns="http://www.w3.org/2000/svg" xmlns:xlink="http://www.w3.org/1999/xlink" x="0px" y="0px"
	 viewBox="0 0 600 600" style="enable-background:new 0 0 600 600;" xml:space="preserve">
<style type="text/css">
	.st0{fill:#1E3050;}
</style>
<g>
	<g>
		<path class="st0" d="M16.9,298c-0.3-153.9,125-280.7,281.2-279.8C456.9,19.1,578,146.6,577.5,299
			C577,456.2,450.7,579.4,296.4,578.9C138.2,578.3,15.9,449.2,16.9,298z M69.7,300.9c2,133.3,110.1,227.5,230.7,225.1
			c130.9-2.6,225.2-106.2,224.3-229.3c-0.5-62.1-22.4-116.5-67.5-160.2C406.7,87.6,345.9,66,275.8,72
			C164,81.5,68.2,176.4,69.7,300.9z"/>
		<path class="st0" d="M296.2,336c-7.4,7.1-14.5,14-21.6,20.9c-8.7,8.5-17.3,17.1-26.1,25.6c-3,2.8-6.2,5.4-9.6,7.8
			c-6.5,4.6-13.4,5.1-20.7,2c-18.5-8-21.9-27.8-11.2-40c1.9-2.2,3.7-4.5,5.8-6.6c13.6-13.9,27.3-27.8,40.9-41.7c1-1,2.1-2.1,3.1-3.1
			c3-3.3,3-3.3,0.2-6.4c-1-1.1-2.1-2.1-3.1-3.1c-14.1-14.1-28.2-28.2-42.3-42.4c-3.8-3.8-7.1-7.8-9.1-13
			c-4.3-11.1,1.1-22.9,9.3-28.3c12.1-7.8,21.2-8.4,35.2,4.6c13,12.1,25.2,25.1,37.8,37.6c3.7,3.7,7.7,7.1,11.6,10.7
			c3.7-3.5,7.5-6.8,11.2-10.4c12.5-12.2,25-24.6,37.6-36.8c2.6-2.5,5.5-4.8,8.6-6.7c17-11.1,35.5,1.5,39,18.1
			c1.2,5.9-0.9,11.6-4.3,16.5c-2.1,3-4.5,5.8-7,8.4c-14.2,14.7-28.6,29.3-42.9,43.9c-3.9,4-3.9,4.1-0.1,8
			c14.3,15,28.7,29.8,42.9,44.9c2.8,3,5.4,6.3,7.6,9.7c7.2,11.1,3.9,21.9-4,29.8c-6.3,6.4-14.2,10.5-23.8,7.5
			c-5.9-1.8-10.8-5.5-15.2-9.8c-14.6-14-29.2-28-43.8-41.9C300.4,339.8,298.4,338,296.2,336z"/>
	</g>
</g>
</svg>
